PathFileType	4	(X/Y/Z)	1_Data\scaling.trc
DataRate	CameraRate	NumFrames	NumMarkers	Units	OrigDataRate	OrigDataStartFrame	OrigNumFrames
120.000000	120.000000	4	71	mm	120.000000	87	697
Frame#	Time	Sternum			Neck			RShoulder			LShoulder			Xiphoid			Thoracic			RAsis			LAsis			RPsis			LPsis			RElbow			RElbowMedial			RShoulderAnterior			RShoulderPosterior			RWrist			RRadius			RUlna			LElbow			LElbowMedial			LShoulderAnterior			LShoulderPosterior			LWrist			LUlna			LRadius			LThighSuperior			LThighInferior			LThighLateral			LKneeLateral			LKneeMedial			LPatella			LShankSuperior			LShankInferior			LShankLateral			LAnkleLateral			LAnkleMedial			RThighSuperior			RThighInferior			RThighLateral			RKneeLateral			RPatella			RShankSuperior			RShankInferior			RShankLateral			RAnkleLateral			RankleMedial			RHeel			RToe			RMidfootMedial			RMidfootLateral			RHindfoot			RMidfootSuperior			RToeMedial			RToeLateral			LHeel			LToe			LMidfootMedial			LMidfootLateral			LHindfoot			LMidfootSuperior			LToeMedial			LToeLateral			RKneeMedial			Lumbar			Oglobal			Sacral			Xglobal			Yglobal			Zglobal			*68			*69			*70			
		X1	Y1	Z1	X2	Y2	Z2	X3	Y3	Z3	X4	Y4	Z4	X5	Y5	Z5	X6	Y6	Z6	X7	Y7	Z7	X8	Y8	Z8	X9	Y9	Z9	X10	Y10	Z10	X11	Y11	Z11	X12	Y12	Z12	X13	Y13	Z13	X14	Y14	Z14	X15	Y15	Z15	X16	Y16	Z16	X17	Y17	Z17	X18	Y18	Z18	X19	Y19	Z19	X20	Y20	Z20	X21	Y21	Z21	X22	Y22	Z22	X23	Y23	Z23	X24	Y24	Z24	X25	Y25	Z25	X26	Y26	Z26	X27	Y27	Z27	X28	Y28	Z28	X29	Y29	Z29	X30	Y30	Z30	X31	Y31	Z31	X32	Y32	Z32	X33	Y33	Z33	X34	Y34	Z34	X35	Y35	Z35	X36	Y36	Z36	X37	Y37	Z37	X38	Y38	Z38	X39	Y39	Z39	X40	Y40	Z40	X41	Y41	Z41	X42	Y42	Z42	X43	Y43	Z43	X44	Y44	Z44	X45	Y45	Z45	X46	Y46	Z46	X47	Y47	Z47	X48	Y48	Z48	X49	Y49	Z49	X50	Y50	Z50	X51	Y51	Z51	X52	Y52	Z52	X53	Y53	Z53	X54	Y54	Z54	X55	Y55	Z55	X56	Y56	Z56	X57	Y57	Z57	X58	Y58	Z58	X59	Y59	Z59	X60	Y60	Z60	X61	Y61	Z61	X62	Y62	Z62	X63	Y63	Z63	X64	Y64	Z64	X65	Y65	Z65	X66	Y66	Z66	X67	Y67	Z67	X68	Y68	Z68	X69	Y69	Z69	X70	Y70	Z70	X71	Y71	Z71	

88	0.725	535.4471435546875	1459.002807617188	-469.3446655273436	382.2267150878906	1572.814575195312	-450.7653808593749	434.2611694335938	1556.091552734375	-299.3726501464843	406.964599609375	1554.956298828125	-597.9783935546874	563.1100463867188	1303.380615234375	-456.3468322753906	293.5278015136719	1352.0859375	-447.5010070800781	492.1129455566406	1039.609375	-320.8053894042968	503.0542297363281	1045.304809570312	-601.9645385742186	305.8974914550781	1067.681884765625	-409.7622070312499	303.8998718261719	1067.454223632812	-512.0545654296874	517.7900390625	1311.43994140625	-85.3242645263671	548.3626708984375	1246.832641601562	-154.1327514648437	488.0879211425781	1499.063354492188	-307.9364013671874	375.5225524902344	1504.059936523438	-280.1139831542968	785.3733520507812	1340.243286132812	-76.3131790161132	798.77978515625	1315.205200195312	-122.8148803710937	786.1859130859375	1312.895751953125	-39.27030181884758	528.5098876953125	1307.73779296875	-801.5910034179686	540.8602294921875	1246.167602539062	-732.0466308593749	468.8459167480469	1507.877685546875	-616.7739257812499	357.5946044921875	1496.521606445312	-628.2015991210936	796.3194580078125	1336.853881835938	-786.8118896484374	790.8258056640625	1300.853515625	-817.6965942382811	803.7822875976562	1316.1181640625	-744.1789550781249	444.2821350097656	874.3929443359375	-656.47412109375	469.1163940429688	643.3841552734375	-638.8361206054688	544.1344604492188	747.5330200195312	-585.8922119140625	473.6857299804688	558.4434814453125	-641.9922485351562	466.4557495117188	565.3773193359375	-499.4970703124999	552.0087280273438	554.606689453125	-576.6990966796875	464.3200988769531	405.6613464355469	-659.5337524414062	429.6331481933594	205.251937866211	-642.984375	487.9349365234375	294.6127319335938	-601.943603515625	410.7284240722656	124.5947036743164	-643.5213012695312	439.5458068847656	125.1451873779297	-557.9140014648438	428.1322631835938	846.3233032226562	-284.5476379394531	442.7891235351562	610.2101440429688	-308.9635925292968	531.6363525390625	764.036865234375	-338.2652893066406	435.05810546875	545.0992431640625	-308.2914123535156	528.317138671875	539.7279052734375	-349.3899230957031	421.8708801269531	448.42138671875	-302.8971252441406	414.0452575683594	194.2512512207032	-335.5853881835938	480.3626403808594	318.2108154296875	-367.6044921875	404.7999267578125	119.9609146118164	-339.2861938476562	436.7106628417969	137.5379180908203	-425.7267456054688	331.6335144042969	79.48210906982425	-394.8145751953125	645.9717407226562	62.95532608032229	-351.6613464355469	552.820068359375	49.4449157714844	-414.6862487792969	540.9409790039062	43.36855316162112	-295.6669616699219	486.2120361328125	43.72166061401369	-309.7549438476562	514.1122436523438	110.7656021118164	-364.4598693847656	597.68603515625	50.2283401489258	-403.9516906738281	588.730224609375	48.18768692016604	-301.5127258300781	341.4127197265625	83.29605102539067	-591.1358642578125	648.7145385742188	73.87068176269536	-642.7965698242188	555.4457397460938	50.69631958007816	-578.4664916992188	541.7529296875	47.18215942382817	-694.926025390625	487.5943908691406	46.52932739257817	-680.081787109375	523.3931274414062	112.6002197265625	-625.6144409179688	597.0848999023438	51.48770523071293	-586.9942016601562	586.0068969726562	56.86166000366215	-690.1447143554688	477.9671936035156	543.147216796875	-444.3236389160156	316.9690246582031	1169.694213867188	-456.1357421874999	0	0	0	304.898681640625	1067.568115234375	-460.9083862304687	200	0	0	0	1.224646799147353e-14	-200	0	200	1.224646799147353e-14	nan	nan	nan	nan	nan	nan	nan	nan	nan	
89	0.7333333333333333	535.478759765625	1458.99462890625	-469.3842163085936	382.2277526855469	1572.877319335938	-450.703887939453	434.3333435058594	1556.1064453125	-299.4309692382811	406.9736328125	1554.966918945312	-597.9776611328124	563.11328125	1303.371459960938	-456.3365478515624	293.5847473144531	1352.128295898438	-447.5346069335937	492.1131591796875	1039.608154296875	-320.8008728027343	503.021240234375	1045.289672851562	-601.9410400390624	305.8960571289062	1067.690551757812	-409.7818908691406	303.9093933105469	1067.459838867188	-512.0504760742186	517.9479370117188	1311.645629882812	-85.21700286865226	548.4412231445312	1246.90283203125	-154.0758056640624	488.1255493164062	1499.06396484375	-307.9679870605468	375.5836486816406	1504.071166992188	-280.1501159667968	785.521484375	1340.146118164062	-76.30969238281241	798.8743286132812	1315.143920898438	-122.8312606811523	786.3040771484375	1312.820190429688	-39.25662231445305	528.4900512695312	1307.66162109375	-801.3567504882811	540.9077758789062	1246.382080078125	-731.6926269531249	468.8925476074219	1507.905517578125	-616.7753906249999	357.6340637207031	1496.53076171875	-628.2192993164061	796.4598388671875	1336.939697265625	-786.7799682617186	791.0643920898438	1300.8828125	-817.7690429687499	803.9369506835938	1316.155029296875	-744.1519165039061	443.9345092773438	874.1531372070312	-655.936767578125	469.1546325683594	643.3878173828125	-638.8187866210938	544.1478271484375	747.5188598632812	-585.912841796875	473.8023376464844	558.3391723632812	-642.0267333984375	466.4935607910156	565.3444213867188	-499.5173339843749	552.0120849609375	554.6161499023438	-576.6854248046875	464.3437805175781	405.6825866699219	-659.5628662109375	429.6452026367188	205.2355651855469	-642.9879760742188	487.9303894042969	294.6060180664063	-601.947021484375	410.6735229492188	124.536376953125	-643.4927978515625	439.5581359863281	125.205078125	-557.8426513671875	428.1304931640625	846.3182983398438	-284.5425720214843	442.784423828125	610.2008666992188	-308.9713134765624	531.635009765625	764.0247802734375	-338.2668151855468	435.0411987304688	545.09033203125	-308.2834777832031	528.3137817382812	539.7378540039062	-349.4031066894531	421.870849609375	448.4231262207031	-302.8995666503906	414.0513610839844	194.2559051513672	-335.603271484375	480.3631896972656	318.2107849121094	-367.6034240722656	404.7995300292969	119.9446334838867	-339.281005859375	436.6814270019531	137.5395202636719	-425.7469482421875	331.7287902832031	79.309196472168	-394.8455810546875	645.9682006835938	62.96221923828127	-351.6476440429688	552.4114379882812	49.13311386108401	-414.2174377441406	540.9382934570312	43.33749008178713	-295.6820983886719	486.2146911621094	43.73221969604494	-309.7412719726562	514.1724853515625	110.794303894043	-364.54345703125	597.6939697265625	50.24375152587893	-403.9468688964844	588.7307739257812	48.1853713989258	-301.4949035644531	341.3867492675781	83.29988861083989	-591.1396484375	648.70751953125	73.88474273681645	-642.7810668945312	555.4437866210938	50.70138549804691	-578.4631958007812	541.7539672851562	47.18472290039067	-694.9307250976562	487.5608825683594	46.49279785156254	-680.0744018554688	523.4030151367188	112.501091003418	-625.5591430664062	597.255126953125	51.48315429687504	-586.9030151367188	585.9837646484375	56.8413581848145	-690.14453125	477.9609375	543.15966796875	-444.3339233398437	316.9642028808594	1169.701782226562	-456.1062927246093	0	0	0	304.9027099609375	1067.5751953125	-460.9161987304687	200	0	0	0	1.224646799147353e-14	-200	0	200	1.224646799147353e-14	nan	nan	nan	nan	nan	nan	nan	nan	nan	
90	0.7416666666666667	535.5157470703125	1458.954467773438	-469.3802185058593	382.3299865722656	1572.800048828125	-450.8271179199218	434.3735046386719	1556.115356445312	-299.4507446289061	407.066162109375	1554.953857421875	-598.0325317382811	563.1251220703125	1303.3203125	-456.3911132812499	293.5934753417969	1352.12646484375	-447.5490722656249	492.1138610839844	1039.6103515625	-320.8000793457031	503.1042785644531	1045.322143554688	-602.0213623046874	305.8982849121094	1067.69677734375	-409.7558898925781	303.8883361816406	1067.468017578125	-512.0398559570311	518.0835571289062	1311.76416015625	-85.21626281738273	548.4822998046875	1246.976318359375	-154.0228271484374	488.1663208007812	1499.084106445312	-307.9738769531249	375.6271057128906	1504.106811523438	-280.1529541015624	785.6713256835938	1340.064453125	-76.29229736328116	798.8028564453125	1315.073364257812	-122.4164733886718	786.4199829101562	1312.727905273438	-39.23499679565422	528.6132202148438	1307.680908203125	-801.4047851562499	540.9750366210938	1246.446655273438	-731.6799316406249	468.9603271484375	1507.938720703125	-616.7822265624999	357.6648254394531	1496.535766601562	-628.2489624023436	796.6414184570312	1337.063720703125	-786.7214355468749	791.2003784179688	1300.9462890625	-817.7581787109374	804.1097412109375	1316.3203125	-743.6967163085936	444.2072448730469	874.3721313476562	-656.5089721679688	469.1314392089844	643.3590698242188	-638.8147583007812	544.1791381835938	747.533447265625	-585.9172973632812	473.7362976074219	558.424560546875	-641.989990234375	466.5246276855469	565.3272705078125	-499.5277099609374	552.0359497070312	554.6112060546875	-576.6944580078125	464.3626403808594	405.6847839355469	-659.5548095703125	429.6419677734375	205.23291015625	-642.9853515625	487.9210510253906	294.6060791015626	-601.9452514648438	410.7259826660156	124.5773544311524	-643.5313110351562	439.5425720214844	125.1543045043946	-557.9019775390625	428.1323852539062	846.3248901367188	-284.5470275878906	442.7885131835938	610.2103881835938	-308.9632568359374	531.63671875	764.0313110351562	-338.2429504394531	435.039306640625	545.0933837890625	-308.2900695800781	528.3111572265625	539.7462768554688	-349.3971557617187	421.8713989257812	448.422607421875	-302.8953247070312	414.0451049804688	194.2579956054688	-335.5915832519531	480.3769226074219	318.2132263183594	-367.6388244628906	404.8199157714844	119.9466171264649	-339.2800903320312	436.6776733398438	137.53955078125	-425.7478637695312	331.7417907714844	79.29153442382815	-394.8346557617188	645.9725952148438	62.95111465454104	-351.6484069824219	552.3809814453125	49.065544128418	-414.1663818359375	540.964111328125	43.34251022338869	-295.6995544433594	486.1679992675781	43.64969253540041	-309.7945861816406	514.18115234375	110.8036804199219	-364.4593505859375	597.6838989257812	50.24134063720705	-403.9485473632812	588.730712890625	48.18529129028322	-301.4944458007812	341.3045959472656	83.37286376953129	-590.9862670898438	648.7152099609375	73.86883544921879	-642.790283203125	555.4451293945312	50.69577407836918	-578.4664916992188	541.7389526367188	47.18587112426762	-694.9110107421875	487.579833984375	46.49206161499028	-680.0774536132812	523.3923950195312	112.5805969238282	-625.5952758789062	597.13916015625	51.48263931274418	-587.0015869140625	586.0392456054688	56.84669494628911	-690.1463623046875	477.9553527832031	543.1705932617188	-444.3251953124999	316.9955139160156	1169.705810546875	-456.1845092773437	0	0	0	304.893310546875	1067.582397460938	-460.8978881835937	200	0	0	0	1.224646799147353e-14	-200	0	200	1.224646799147353e-14	nan	nan	nan	nan	nan	nan	nan	nan	nan	
91	0.75	535.5507202148438	1458.954833984375	-469.4235229492186	382.3809814453125	1572.799072265625	-450.8549804687499	434.4488525390625	1556.13818359375	-299.4959106445311	407.1226501464844	1554.960815429688	-598.0776367187499	563.1276245117188	1303.272705078125	-456.3876953124999	293.5834045410156	1352.142211914062	-447.5695495605468	492.1303100585938	1039.605590820312	-320.8065795898437	503.1690063476562	1045.31982421875	-602.0621948242186	305.8961791992188	1067.710693359375	-409.8026123046874	303.9233703613281	1067.45654296875	-512.0556640624999	518.1922607421875	1311.853393554688	-85.2163543701171	548.53466796875	1247.037109375	-153.9584045410155	488.2131958007812	1499.129760742188	-307.9804077148436	375.6688232421875	1504.115844726562	-280.1903686523436	785.8253784179688	1339.972534179688	-76.30422973632804	798.9013671875	1314.882568359375	-122.2756576538085	786.5515747070312	1312.631591796875	-39.24348068237297	528.741943359375	1307.752807617188	-801.4008178710936	541.1381225585938	1246.500244140625	-731.6990966796874	469.0237731933594	1507.931640625	-616.7988891601561	357.8110656738281	1496.5263671875	-628.3078613281249	796.7899169921875	1337.15771484375	-786.6549072265624	791.34326171875	1301.071411132812	-817.7130737304686	804.2850952148438	1316.378173828125	-743.7439575195311	444.2786254882812	874.409912109375	-656.57861328125	469.17578125	643.355712890625	-638.8331909179688	544.1739501953125	747.5252685546875	-585.9425048828125	473.8314208984375	558.3389892578125	-642.03466796875	466.5312194824219	565.3245239257812	-499.5295715332031	552.04541015625	554.5947875976562	-576.6737060546875	464.3774719238281	405.6720581054688	-659.5642700195312	429.6367797851562	205.2229461669922	-643.006591796875	487.9395751953125	294.6044006347657	-601.9343872070312	410.7339172363281	124.5818481445313	-643.5374755859375	439.5434265136719	125.1494827270508	-557.9114990234375	428.120849609375	846.3246459960938	-284.5671081542968	442.7846984863281	610.20068359375	-308.9715881347656	531.6353759765625	764.01953125	-338.2433166503906	435.0356140136719	545.1095581054688	-308.2886657714843	528.3260498046875	539.7908935546875	-349.4159545898437	421.8694458007812	448.4200439453125	-302.9028625488281	414.0478515625	194.2406463623047	-335.5978698730469	480.3816223144531	318.2052917480469	-367.6268005371094	404.8164978027344	119.9351348876953	-339.2989501953125	436.6788940429688	137.5394134521485	-425.7472229003906	331.7891235351562	79.40766906738284	-394.6878051757812	645.9640502929688	62.95394134521487	-351.6261291503906	552.3985595703125	49.11263656616214	-414.2034912109375	540.8272705078125	43.46553039550783	-295.578125	486.2136840820312	43.69197082519533	-309.8052978515625	514.1585083007812	110.7679901123047	-364.4949035644531	597.6834106445312	50.24096298217776	-403.948486328125	588.7117919921875	48.17994308471682	-301.4764404296875	341.3197326660156	83.36619567871098	-590.9846801757812	648.7103881835938	73.88249206542973	-642.7843627929688	555.4449462890625	50.69871139526371	-578.46484375	541.7711791992188	47.18809890747075	-694.924072265625	487.8651123046875	46.55592727661137	-680.0663452148438	523.4049072265625	112.4948883056641	-625.5578002929688	597.1312866210938	51.48638534545902	-587.0191040039062	586.0400390625	56.84396362304692	-690.1481323242188	477.9672546386719	543.2178344726562	-444.3411560058593	317.0367126464844	1169.704223632812	-456.2373962402343	0	0	0	304.9097900390625	1067.583618164062	-460.9291381835937	200	0	0	0	1.224646799147353e-14	-200	0	200	1.224646799147353e-14	nan	nan	nan	nan	nan	nan	nan	nan	nan	
